<?xml version="1.0" standalone="no"?>
<!DOCTYPE svg PUBLIC "-//W3C//DTD SVG 1.1//EN" "http://www.w3.org/Graphics/SVG/1.1/DTD/svg11.dtd" >
<svg xmlns="http://www.w3.org/2000/svg" xmlns:xlink="http://www.w3.org/1999/xlink" version="1.1">
<metadata>
Created by FontForge 20201107 at Wed May 05 21:26:49 2021
 By Usuario
</metadata>
<defs>
<font id="OriginTechDemoRegular" horiz-adv-x="626" >
  <font-face 
    font-family="Origin Tech Demo"
    font-weight="400"
    font-stretch="normal"
    units-per-em="1000"
    panose-1="0 0 0 0 0 0 0 0 0 0"
    ascent="800"
    descent="-200"
    x-height="550.113"
    cap-height="700"
    bbox="-9 -138.632 1161 796"
    underline-thickness="0"
    underline-position="0"
    unicode-range="U+000A-20AC"
  />
<missing-glyph horiz-adv-x="527" 
d="M50 700h427v-700h-427v700zM78 680l185 -309l186 309h-371zM251 350l-180 300v-601zM264 329l-185 -308h370zM276 350l181 -303v605z" />
    <glyph glyph-name=".notdef" horiz-adv-x="527" 
d="M50 700h427v-700h-427v700zM78 680l185 -309l186 309h-371zM251 350l-180 300v-601zM264 329l-185 -308h370zM276 350l181 -303v605z" />
    <glyph glyph-name=".null" horiz-adv-x="0" 
 />
    <glyph glyph-name=".null" horiz-adv-x="0" 
 />
    <glyph glyph-name="nonmarkingreturn" horiz-adv-x="333" 
 />
    <glyph glyph-name="controlLF" unicode="&#xa;" horiz-adv-x="0" 
 />
    <glyph glyph-name="controlCR" unicode="&#xd;" horiz-adv-x="0" 
 />
    <glyph glyph-name="space" unicode=" " horiz-adv-x="327" 
 />
    <glyph glyph-name="exclam" unicode="!" horiz-adv-x="283" 
d="M66 698h151v-440h-76v-99h-75v539zM169 93v90h48v-182h-151v92h103z" />
    <glyph glyph-name="quotedbl" unicode="&#x22;" horiz-adv-x="221" 
d="M18 663v78h78v-78l-56 -71l10 71h-32zM125 741h78v-78l-56 -71l10 71h-32v78z" />
    <glyph glyph-name="quotedbl" unicode="&#x201d;" horiz-adv-x="221" 
d="M18 663v78h78v-78l-56 -71l10 71h-32zM125 741h78v-78l-56 -71l10 71h-32v78z" />
    <glyph glyph-name="quotedbl" unicode="&#x201c;" horiz-adv-x="221" 
d="M18 663v78h78v-78l-56 -71l10 71h-32zM125 741h78v-78l-56 -71l10 71h-32v78z" />
    <glyph glyph-name="numbersign" unicode="#" horiz-adv-x="865" 
d="M671 509h160l-30 -96h-270l30 96l60 191h110zM629 377l-27 -89h158l-30 -96h-158l-60 -191h-111l60 191h-143l-59 -191h-111l60 191h-175l30 96h175l39 125h-173l30 96h173l60 191h111l-60 -191h102l-30 -96h-102l-40 -125h143l28 89h110z" />
    <glyph glyph-name="dollar" unicode="$" horiz-adv-x="552" 
d="M355 411q59 -4 99.5 -47t40.5 -103v-66q0 -58 -41 -99t-99 -41h-31v-54h-96v54h-164v123h164v110h-31v1q-59 2 -100 44t-41 101v68q0 59 41.5 100.5t100.5 41.5h30v56h96v-56h164v-123h-164v-109h31v-1zM202 412h26v109h-30q-8 0 -13.5 -5.5t-5.5 -13.5v-68q0 -9 7 -15.5
t16 -6.5zM372 195v66q0 11 -7.5 19t-18.5 8h-22v-110h31q7 0 12 5t5 12z" />
    <glyph glyph-name="percent" unicode="%" horiz-adv-x="614" 
d="M381 700h166l-315 -699h-166zM497 149h77v-149h-177v235zM216 452l-99 99h-78v149h177v-248z" />
    <glyph glyph-name="ampersand" unicode="&#x26;" horiz-adv-x="709" 
d="M360 412v-1h303v-123h-88l-43 -272h-344q-58 0 -99 45t-41 108v78q0 49 24.5 90t64.5 60q-8 25 -8 51v79q0 65 42 110.5t100 45.5h352v-222h-124v98h-228q-6 0 -12 -9t-6 -23v-79q0 -10 3.5 -18.5t8.5 -13t10 -4.5h85zM427 139l24 149h-253q-10 0 -18.5 -12t-8.5 -29v-78
q0 -12 5.5 -21t11.5 -9h239z" />
    <glyph glyph-name="quotesingle" unicode="'" horiz-adv-x="114" 
d="M18 741h78v-78l-56 -71l10 71h-32v78z" />
    <glyph glyph-name="quotesingle" unicode="&#x2019;" horiz-adv-x="114" 
d="M18 741h78v-78l-56 -71l10 71h-32v78z" />
    <glyph glyph-name="quotesingle" unicode="&#x2018;" horiz-adv-x="114" 
d="M18 741h78v-78l-56 -71l10 71h-32v78z" />
    <glyph glyph-name="parenleft" unicode="(" horiz-adv-x="382" 
d="M202 700q-11 -5 -24.5 -30.5t-14.5 -67.5v-517q0 -40 10 -63.5t26 -23.5h156v-96h-156q-11 0 -22.5 2t-32.5 12.5t-36.5 28.5t-28 54.5t-12.5 85.5v519q3 86 43 139t90 53h155v-96h-153z" />
    <glyph glyph-name="parenright" unicode=")" horiz-adv-x="382" 
d="M314 604v-2v-517q0 -41 -8 -73.5t-21.5 -51.5t-28 -32t-30.5 -18t-25.5 -6.5t-17.5 -1.5h-157v96h157q10 0 18 10.5t12.5 30.5t5.5 46v516q-2 43 -15 68.5t-25 30.5h-153v96h156q31 0 60.5 -22.5t50 -67.5t21.5 -102z" />
    <glyph glyph-name="asterisk" unicode="*" horiz-adv-x="606" 
d="M256 432v-169l-166 -99l-49 83l170 101l-170 100l49 83zM398 348l170 -101l-49 -83l-167 99v-193h-96v193l48 29l48 28zM393 390l-47 -29l-48 -28v294h95v-125l108 64l49 -83l-111 -66z" />
    <glyph glyph-name="plus" unicode="+" horiz-adv-x="374" 
d="M220 288h124v-68h-124v-124h-67v124h-124v68h124v124h67v-124z" />
    <glyph glyph-name="comma" unicode="," horiz-adv-x="112" 
d="M17 78h78v-77l-56 -71l10 71h-32v77z" />
    <glyph glyph-name="hyphen" unicode="-" horiz-adv-x="344" 
d="M329 220h-315v68h315v-68z" />
    <glyph glyph-name="period" unicode="." horiz-adv-x="110" 
d="M94 1h-78v77h78v-77z" />
    <glyph glyph-name="slash" unicode="/" horiz-adv-x="421" 
d="M316 728h95l-302 -753h-94z" />
    <glyph glyph-name="zero" unicode="0" horiz-adv-x="654" 
d="M327 704q74 0 135.5 -29t96.5 -79t35 -111v-225h-73v197h-77v28q0 16 -15 32t-42.5 26.5t-59.5 10.5t-59.5 -10.5t-42.5 -26.5t-15 -32v-225h-72v197h-79v28q0 92 77.5 155.5t190.5 63.5zM494 429v-197h100v-28q0 -92 -77.5 -155.5t-190 -63.5t-190 63.5t-77.5 155.5v225
h51v-197h100v-28q0 -25 34 -46.5t82.5 -21.5t83 21.5t34.5 46.5v225h50z" />
    <glyph glyph-name="one" unicode="1" horiz-adv-x="355" 
d="M137 698h151v-376h-76v196h-180zM185 491v-197h103v-295h-151v492h48z" />
    <glyph glyph-name="two" unicode="2" horiz-adv-x="608" 
d="M179 167l-31 -28h389v-150h-488v145l86 78q55 51 175 129l28 18q59 39 64 97h65q-3 -43 -27 -82t-66 -66q-10 -7 -28 -18q-116 -76 -167 -123zM400 492q-8 27 -29 43.5t-50 18.5h-272v151h278q79 -4 138 -51t80 -122q23 -84 -11 -165t-114 -134l-27 -18q-47 -30 -74 -49
h-100q45 37 142 101l28 18q51 34 78.5 82.5t26.5 102.5v13h-92q-1 5 -2 9z" />
    <glyph glyph-name="three" unicode="3" horiz-adv-x="615" 
d="M432 703q49 0 83.5 -34.5t34.5 -83.5v-382h-53v245h-98v105h-349v150h382zM470 421v-245h80v-66q0 -33 -16.5 -61.5t-44.5 -45t-62 -16.5h-377v151h349v131h-253v152h324z" />
    <glyph glyph-name="four" unicode="4" horiz-adv-x="607" 
d="M202 702v-381l159 -37v-43l-310 72v389h151zM389 698h151v-699h-151v236h-1v71l-159 37v84l160 -38v309z" />
    <glyph glyph-name="five" unicode="5" horiz-adv-x="648" 
d="M442 240q-4 29 -23.5 49t-44.5 20h-318l48 383h473v-150h-340l-23 -172h160q51 0 88 -37.5t42 -92.5h-62zM374 459q91 0 155 -68t64 -165t-64 -165.5t-155 -68.5h-315v151h315q17 0 31.5 9t24 25t12.5 35h90v14q0 71 -46.5 121.5t-111.5 50.5h-129l8 61h121z" />
    <glyph glyph-name="six" unicode="6" horiz-adv-x="637" 
d="M363 459q91 0 155 -68t64 -165t-64 -165.5t-155 -68.5h-115q-80 0 -136.5 57t-56.5 136l1 208q16 128 112.5 213.5t225.5 85.5h172v-150h-172q-48 0 -89 -22.5t-68 -60.5h1v-89h125q15 0 28.5 -3t26 -9.5t23.5 -15.5t19.5 -20t15.5 -24t11 -28t6 -30h-62q-4 29 -23.5 49
t-44.5 20h-115q-18 0 -30 -12.5t-12 -30.5v-81q0 -17 12 -29.5t30 -12.5h115q25 0 44.5 20t23.5 49h90v14q0 71 -46.5 121.5t-111.5 50.5h-98v61h98z" />
    <glyph glyph-name="seven" unicode="7" horiz-adv-x="534" 
d="M410 514l-113 -221h71l-151 -294h-168l265 515h96zM41 692h455v-150l-114 -222h-40l113 222h-414v150z" />
    <glyph glyph-name="eight" unicode="8" horiz-adv-x="657" 
d="M506 239v-67h89v-14q0 -71 -50 -121t-120 -50h-194q-70 0 -120 50t-50 121v81q0 58 34 105q-34 47 -34 104v41h62v-41q0 -32 17 -60q7 -11 17 -21v-1q4 -4 9 -8q1 -1 2 -1q5 -4 10 -7q0 -1 1 -1q5 -3 11 -6h1l1 -1l10 -4q1 0 4 -1q5 -1 9 -2l4 -1q7 -1 13 -1v-1h181
q5 0 11 -1v0h3q4 -1 9 -2l2 -1q6 -1 10 -3h1q5 -2 10 -5l1 -1q4 -2 8 -5q0 -1 1 -1q6 -4 12 -11l0.5 -0.5l1.5 -1.5q5 -6 9 -12v-1q14 -22 14 -48zM445 158v81q0 13 -9.5 22t-22.5 9h-170q-13 0 -22 -9t-9 -22v-81q0 -6 2.5 -10.5t7 -7t9.5 -2.5h194q8 0 14 6t6 14zM595 530
v-82q0 -57 -34 -104q34 -47 34 -105v-40h-61v40q0 33 -18 62q-7 11 -16 21l-1 1q-4 4 -9 8l-2 2q-5 4 -10 7q-6 4 -12 7q-1 0 -1 1h-1l-10 4q-1 0 -4 1q-4 2 -9 3q-3 1 -4 1q-7 1 -13 2v1h-185h-7h-2h-2t-3 1q-4 1 -8 1q-2 1 -3 1q-5 2 -9 3q-5 2 -10 5l-1 1q-4 2 -8 5l-1 1
q-5 4 -11 10l-0.5 0.5l-1.5 1.5q-5 5 -8 12h-1v0q-13 22 -13 46v69h-89v13q0 47 23 87t63 63t87 23h189q71 0 121.5 -50.5t50.5 -122.5zM445 448v82q0 6 -3 11.5t-8.5 8.5t-11.5 3h-188q-9 0 -15.5 -6.5t-6.5 -16.5v-82q0 -11 8 -19t19 -8h179q11 0 19 8t8 19z" />
    <glyph glyph-name="nine" unicode="9" horiz-adv-x="636" 
d="M388 692q52 0 96.5 -25.5t70.5 -70t26 -97.5l-1 -208q-16 -127 -113 -213t-225 -86h-172v151h172q47 0 88.5 22.5t68.5 60.5l-126 -1q-88 0 -151 64t-68 156h61q5 -66 50.5 -112t107.5 -46h125v90q14 4 23 15.5t9 25.5v81q0 18 -12.5 30.5t-29.5 12.5h-115
q-29 0 -49 -24.5t-20 -58.5t20 -58.5t49 -24.5h98v-62h-98q-54 0 -92.5 42.5t-38.5 102.5v14h-88q5 92 68 155.5t151 63.5h115z" />
    <glyph glyph-name="colon" unicode=":" horiz-adv-x="132" 
d="M105 321h-78v77h78v-77zM105 120h-78v77h78v-77z" />
    <glyph glyph-name="semicolon" unicode=";" horiz-adv-x="145" 
d="M111 322h-77v78h77v-78zM111 199v0v-78h-1l-55 -70l10 70h-31h-1v78h78z" />
    <glyph glyph-name="less" unicode="&#x3c;" horiz-adv-x="358" 
d="M325 315l-109 -62l109 -62l-48 -83l-112 64l-46 26l-49 28l-48 28l130 73l17 10l109 61z" />
    <glyph glyph-name="equal" unicode="=" horiz-adv-x="362" 
d="M338 285h-315v78h315v-78zM338 192h-315v48h315v-48z" />
    <glyph glyph-name="greater" unicode="&#x3e;" horiz-adv-x="358" 
d="M206 327l130 -73l-48 -28l-49 -28l-46 -26l-112 -64l-48 83l109 62l-109 62l47 83l109 -61z" />
    <glyph glyph-name="question" unicode="?" horiz-adv-x="588" 
d="M149 88h103v-88h-151v185h48v-97zM536 530q23 -83 -11 -164.5t-114 -133.5q-10 -7 -27 -19q-55 -35 -85 -57h-122v97q42 33 124 87l28 18q42 28 56.5 64t5.5 68q-8 28 -28.5 44.5t-50.5 17.5h-272v151h278q79 -4 138.5 -51t79.5 -122z" />
    <glyph glyph-name="at" unicode="@" horiz-adv-x="708" 
d="M350 486h150v-207h50v268h-203q-81 0 -138.5 -57.5t-57.5 -138.5v-221h489v-96h-585v317q0 121 85.5 206.5t206.5 85.5h299v-460h-445v155q0 61 43.5 104.5t105.5 43.5zM404 279v111h-54q-22 0 -37.5 -15t-15.5 -37v-59h107z" />
    <glyph glyph-name="A" unicode="A" horiz-adv-x="722" 
d="M623 190l-254 553l-205 -445h165l40 84l66 -145l-319 3l-112 -242h166l22 48l320 2l22 -48h174l-64 146l-406 2l20 46z" />
    <glyph glyph-name="A" unicode="&#xc5;" horiz-adv-x="722" 
d="M623 190l-254 553l-205 -445h165l40 84l66 -145l-319 3l-112 -242h166l22 48l320 2l22 -48h174l-64 146l-406 2l20 46z" />
    <glyph glyph-name="A" unicode="&#xc4;" horiz-adv-x="722" 
d="M623 190l-254 553l-205 -445h165l40 84l66 -145l-319 3l-112 -242h166l22 48l320 2l22 -48h174l-64 146l-406 2l20 46z" />
    <glyph glyph-name="A" unicode="&#xc3;" horiz-adv-x="722" 
d="M623 190l-254 553l-205 -445h165l40 84l66 -145l-319 3l-112 -242h166l22 48l320 2l22 -48h174l-64 146l-406 2l20 46z" />
    <glyph glyph-name="A" unicode="&#xc2;" horiz-adv-x="722" 
d="M623 190l-254 553l-205 -445h165l40 84l66 -145l-319 3l-112 -242h166l22 48l320 2l22 -48h174l-64 146l-406 2l20 46z" />
    <glyph glyph-name="A" unicode="&#xc1;" horiz-adv-x="722" 
d="M623 190l-254 553l-205 -445h165l40 84l66 -145l-319 3l-112 -242h166l22 48l320 2l22 -48h174l-64 146l-406 2l20 46z" />
    <glyph glyph-name="A" unicode="&#xc0;" horiz-adv-x="722" 
d="M623 190l-254 553l-205 -445h165l40 84l66 -145l-319 3l-112 -242h166l22 48l320 2l22 -48h174l-64 146l-406 2l20 46z" />
    <glyph glyph-name="B" unicode="B" horiz-adv-x="709" 
d="M587 407q70 -65 70 -160q0 -91 -63.5 -169t-153.5 -78h-79l-1 114h-100v49h178q28 0 48 27.5t20 56t-20.5 48.5t-48.5 20h-220l1 -242h102l-1 -73h-253l-3 700.1l153 -1l3 -234.1l204 1q17 0 29.0415 12.0419q11.9585 11.9581 11.9585 28.9581t-12.0733 29.0733
q-12.0733 12.0733 -28.9267 11.9267l-115 -1v-41h-48v192l163 1q52.4983 0 96.4992 -25.8531q44.5008 -26.1469 70.0008 -70.1469t25.5 -96q0 -54 -28 -100z" />
    <glyph glyph-name="C" unicode="C" horiz-adv-x="660" 
d="M103 363v21l-75 4q8 128 116 217t238 93q135 4 239 -91q11 -10 21 -21l-112 -100q-55 62 -137 62q-77 0 -131 -54.5t-54 -130.5q0 -54 29 -99l-82 -66q-22 32 -35 69q-17 46 -17 96zM393 148q75 0 135 47l96 -120q-100 -81 -230 -81q-32 0 -63.5 5.5t-61.5 16t-58 26
t-53.5 36.5t-46.5 46q-80 94 -87 218h39q3 -46 18 -89q18.809 -53.4573 55 -98l13 -16l106 90l7 -7q74 -74 131 -74z" />
    <glyph glyph-name="C" unicode="&#xc7;" horiz-adv-x="660" 
d="M103 363v21l-75 4q8 128 116 217t238 93q135 4 239 -91q11 -10 21 -21l-112 -100q-55 62 -137 62q-77 0 -131 -54.5t-54 -130.5q0 -54 29 -99l-82 -66q-22 32 -35 69q-17 46 -17 96zM393 148q75 0 135 47l96 -120q-100 -81 -230 -81q-32 0 -63.5 5.5t-61.5 16t-58 26
t-53.5 36.5t-46.5 46q-80 94 -87 218h39q3 -46 18 -89q18.809 -53.4573 55 -98l13 -16l106 90l7 -7q74 -74 131 -74z" />
    <glyph glyph-name="D" unicode="D" horiz-adv-x="697" 
d="M562 619q48 -48 74.5 -112t26.5 -134q0 -91 -42 -168t-114.5 -141t-157.5 -64h-93v150h92q67 0 115.5 74t48.5 149q0 83 -56 139q-47 46 -107 46h-93v-219h-93v310l-101 -1v59l286 1q124.564 0.43554 214 -89zM122 608v-311h93l1 -297h-151l-1 608h58z" />
    <glyph glyph-name="E" unicode="E" horiz-adv-x="633" 
d="M203 237v-85h347v-151l-458 -1v373h44v-88l98 1v-49h-31zM591 549h-347v-120h346l-60 -161l-1 -1h-255l2 43l-113 1l-1 105l-69 -1v285h498v-151z" />
    <glyph glyph-name="E" unicode="&#xcb;" horiz-adv-x="633" 
d="M203 237v-85h347v-151l-458 -1v373h44v-88l98 1v-49h-31zM591 549h-347v-120h346l-60 -161l-1 -1h-255l2 43l-113 1l-1 105l-69 -1v285h498v-151z" />
    <glyph glyph-name="E" unicode="&#xca;" horiz-adv-x="633" 
d="M203 237v-85h347v-151l-458 -1v373h44v-88l98 1v-49h-31zM591 549h-347v-120h346l-60 -161l-1 -1h-255l2 43l-113 1l-1 105l-69 -1v285h498v-151z" />
    <glyph glyph-name="E" unicode="&#xc9;" horiz-adv-x="633" 
d="M203 237v-85h347v-151l-458 -1v373h44v-88l98 1v-49h-31zM591 549h-347v-120h346l-60 -161l-1 -1h-255l2 43l-113 1l-1 105l-69 -1v285h498v-151z" />
    <glyph glyph-name="E" unicode="&#xc8;" horiz-adv-x="633" 
d="M203 237v-85h347v-151l-458 -1v373h44v-88l98 1v-49h-31zM591 549h-347v-120h346l-60 -161l-1 -1h-255l2 43l-113 1l-1 105l-69 -1v285h498v-151z" />
    <glyph glyph-name="F" unicode="F" horiz-adv-x="618" 
d="M161 608v-259l330 -1l-1 -154l-276 3v-197h-151v608h98zM64 699l540 -2v-150h-349v-157h-53v260l-142 2v46h4v1z" />
    <glyph glyph-name="G" unicode="G" horiz-adv-x="733" 
d="M386 168q63 0 77 19.5q27 38.5 53 76.5h-118l54 137l252 -2l-1 -137l-133 1q-7 -52 -39 -84q-60 -59 -144 -59h-28v48h22h5zM596 211l108 1q-37 -85 -109 -140q-94 -72 -211 -72q-24 0 -48 3q-70 10 -129.5 44.5t-102.5 89.5q-87 115 -68 259q10 70 44.5 129.5
t89.5 101.5q75 58 167.5 69.5t179 -24t143.5 -110.5l-119 -92q-50 65 -132.5 76t-147 -38.5t-75.5 -131.5t38 -147q40 -53 105 -71l1 -57l3 -1l27 -2q12 -2 25 -2q65 0 121 31t90 84z" />
    <glyph glyph-name="H" unicode="H" horiz-adv-x="749" 
d="M1078 396zM293 409l1 -85l124 0.200195l-1 -66l-199 -0.200195v-260h-151v708.1h151v-297.1h75zM331 355v54h197l6 297.1h150h1l-3 -707.1l-157 1l6 253h-80v100z" />
    <glyph glyph-name="I" unicode="I" horiz-adv-x="300" 
d="M59 700l191 -1v-315h-66v191l-125 1v124zM143 534v-192l106 -1v-341h-188l-3 534h85z" />
    <glyph glyph-name="I" unicode="&#xcf;" horiz-adv-x="300" 
d="M59 700l191 -1v-315h-66v191l-125 1v124zM143 534v-192l106 -1v-341h-188l-3 534h85z" />
    <glyph glyph-name="I" unicode="&#xce;" horiz-adv-x="300" 
d="M59 700l191 -1v-315h-66v191l-125 1v124zM143 534v-192l106 -1v-341h-188l-3 534h85z" />
    <glyph glyph-name="I" unicode="&#xcd;" horiz-adv-x="300" 
d="M59 700l191 -1v-315h-66v191l-125 1v124zM143 534v-192l106 -1v-341h-188l-3 534h85z" />
    <glyph glyph-name="I" unicode="&#xcc;" horiz-adv-x="300" 
d="M59 700l191 -1v-315h-66v191l-125 1v124zM143 534v-192l106 -1v-341h-188l-3 534h85z" />
    <glyph glyph-name="J" unicode="J" horiz-adv-x="609" 
d="M457 551v-234l105 -1v-9q0 -84 -41 -154.5t-110 -112.5v0q-74 -45 -161 -45q-156 0 -248 85l1 1l167 72q22 -6 44 -6q67 0 114 47t47 114v243h82zM378 695l189 -2v-335h-69v234l-120 2v101z" />
    <glyph glyph-name="K" unicode="K" horiz-adv-x="661" 
d="M440 197l-206 206l-172 -2v306l156 -0.900391l-4 -217.1l244 221h213l-330 -331l182 -182h-83zM438 155l112 -1l154 -154l-268 2l-229 229v-233h-151v365l176 -2z" />
    <glyph glyph-name="L" unicode="L" horiz-adv-x="561" 
d="M328 192v-69h-274v572l150 -65v-438h124zM368 188h178l1 -188h-489v82h311z" />
    <glyph glyph-name="M" unicode="M" horiz-adv-x="946" 
d="M947 694l-1 -694l-146 65v269l-276 -304l-126 96l4 106l-342 330v151l464 -443zM60 0v521l315 -316v-61l-164 164v-308h-151z" />
    <glyph glyph-name="N" unicode="N" horiz-adv-x="737" 
d="M526 706.1h146l-2 -706.1h-212l-8 238l-392 332v137l461 -375zM59 0v521l351 -306v-64l-200 175v-326h-151z" />
    <glyph glyph-name="N" unicode="&#xd1;" horiz-adv-x="737" 
d="M526 706.1h146l-2 -706.1h-212l-8 238l-392 332v137l461 -375zM59 0v521l351 -306v-64l-200 175v-326h-151z" />
    <glyph glyph-name="O" unicode="O" horiz-adv-x="734" 
d="M103 287l-79 -11q-16 58 2.5 123.5t45.5 119.5q8 16 18 31q64 99 177 136q132 44 256 -19q59 -30 102 -80t65 -113l-37 -8q-15 41 -42 77q-29.9183 40.8883 -78 72l-17 11l-78 -114v0q-43 22 -123 5q-63 -13 -98.5 -82.5q-37.5 -74.5 -20.5 -124.5q17 -53 61 -88l-56 -86
q-29 22 -51 51q-24.4048 32.2143 -41 82zM696 432q15 -58 1.5 -124t-40.5 -120q-30 -60 -80.5 -103.5t-113.5 -64.5q-133 -43 -257 20q-59 30 -101.5 79t-64.5 112l35 7q16 -41 43 -76q32 -42 77 -72l18 -12l73 114q65 -30 122 -13q63 20 98 75q5 8 10 17q35 71 17 126
q-17 52 -60 87l55 85q25 -19 50 -51q25.5814 -32.7442 42 -82l6 -18z" />
    <glyph glyph-name="O" unicode="&#xd8;" horiz-adv-x="734" 
d="M103 287l-79 -11q-16 58 2.5 123.5t45.5 119.5q8 16 18 31q64 99 177 136q132 44 256 -19q59 -30 102 -80t65 -113l-37 -8q-15 41 -42 77q-29.9183 40.8883 -78 72l-17 11l-78 -114v0q-43 22 -123 5q-63 -13 -98.5 -82.5q-37.5 -74.5 -20.5 -124.5q17 -53 61 -88l-56 -86
q-29 22 -51 51q-24.4048 32.2143 -41 82zM696 432q15 -58 1.5 -124t-40.5 -120q-30 -60 -80.5 -103.5t-113.5 -64.5q-133 -43 -257 20q-59 30 -101.5 79t-64.5 112l35 7q16 -41 43 -76q32 -42 77 -72l18 -12l73 114q65 -30 122 -13q63 20 98 75q5 8 10 17q35 71 17 126
q-17 52 -60 87l55 85q25 -19 50 -51q25.5814 -32.7442 42 -82l6 -18z" />
    <glyph glyph-name="O" unicode="&#xd6;" horiz-adv-x="734" 
d="M103 287l-79 -11q-16 58 2.5 123.5t45.5 119.5q8 16 18 31q64 99 177 136q132 44 256 -19q59 -30 102 -80t65 -113l-37 -8q-15 41 -42 77q-29.9183 40.8883 -78 72l-17 11l-78 -114v0q-43 22 -123 5q-63 -13 -98.5 -82.5q-37.5 -74.5 -20.5 -124.5q17 -53 61 -88l-56 -86
q-29 22 -51 51q-24.4048 32.2143 -41 82zM696 432q15 -58 1.5 -124t-40.5 -120q-30 -60 -80.5 -103.5t-113.5 -64.5q-133 -43 -257 20q-59 30 -101.5 79t-64.5 112l35 7q16 -41 43 -76q32 -42 77 -72l18 -12l73 114q65 -30 122 -13q63 20 98 75q5 8 10 17q35 71 17 126
q-17 52 -60 87l55 85q25 -19 50 -51q25.5814 -32.7442 42 -82l6 -18z" />
    <glyph glyph-name="O" unicode="&#xd5;" horiz-adv-x="734" 
d="M103 287l-79 -11q-16 58 2.5 123.5t45.5 119.5q8 16 18 31q64 99 177 136q132 44 256 -19q59 -30 102 -80t65 -113l-37 -8q-15 41 -42 77q-29.9183 40.8883 -78 72l-17 11l-78 -114v0q-43 22 -123 5q-63 -13 -98.5 -82.5q-37.5 -74.5 -20.5 -124.5q17 -53 61 -88l-56 -86
q-29 22 -51 51q-24.4048 32.2143 -41 82zM696 432q15 -58 1.5 -124t-40.5 -120q-30 -60 -80.5 -103.5t-113.5 -64.5q-133 -43 -257 20q-59 30 -101.5 79t-64.5 112l35 7q16 -41 43 -76q32 -42 77 -72l18 -12l73 114q65 -30 122 -13q63 20 98 75q5 8 10 17q35 71 17 126
q-17 52 -60 87l55 85q25 -19 50 -51q25.5814 -32.7442 42 -82l6 -18z" />
    <glyph glyph-name="O" unicode="&#xd4;" horiz-adv-x="734" 
d="M103 287l-79 -11q-16 58 2.5 123.5t45.5 119.5q8 16 18 31q64 99 177 136q132 44 256 -19q59 -30 102 -80t65 -113l-37 -8q-15 41 -42 77q-29.9183 40.8883 -78 72l-17 11l-78 -114v0q-43 22 -123 5q-63 -13 -98.5 -82.5q-37.5 -74.5 -20.5 -124.5q17 -53 61 -88l-56 -86
q-29 22 -51 51q-24.4048 32.2143 -41 82zM696 432q15 -58 1.5 -124t-40.5 -120q-30 -60 -80.5 -103.5t-113.5 -64.5q-133 -43 -257 20q-59 30 -101.5 79t-64.5 112l35 7q16 -41 43 -76q32 -42 77 -72l18 -12l73 114q65 -30 122 -13q63 20 98 75q5 8 10 17q35 71 17 126
q-17 52 -60 87l55 85q25 -19 50 -51q25.5814 -32.7442 42 -82l6 -18z" />
    <glyph glyph-name="O" unicode="&#xd3;" horiz-adv-x="734" 
d="M103 287l-79 -11q-16 58 2.5 123.5t45.5 119.5q8 16 18 31q64 99 177 136q132 44 256 -19q59 -30 102 -80t65 -113l-37 -8q-15 41 -42 77q-29.9183 40.8883 -78 72l-17 11l-78 -114v0q-43 22 -123 5q-63 -13 -98.5 -82.5q-37.5 -74.5 -20.5 -124.5q17 -53 61 -88l-56 -86
q-29 22 -51 51q-24.4048 32.2143 -41 82zM696 432q15 -58 1.5 -124t-40.5 -120q-30 -60 -80.5 -103.5t-113.5 -64.5q-133 -43 -257 20q-59 30 -101.5 79t-64.5 112l35 7q16 -41 43 -76q32 -42 77 -72l18 -12l73 114q65 -30 122 -13q63 20 98 75q5 8 10 17q35 71 17 126
q-17 52 -60 87l55 85q25 -19 50 -51q25.5814 -32.7442 42 -82l6 -18z" />
    <glyph glyph-name="O" unicode="&#xd2;" horiz-adv-x="734" 
d="M103 287l-79 -11q-16 58 2.5 123.5t45.5 119.5q8 16 18 31q64 99 177 136q132 44 256 -19q59 -30 102 -80t65 -113l-37 -8q-15 41 -42 77q-29.9183 40.8883 -78 72l-17 11l-78 -114v0q-43 22 -123 5q-63 -13 -98.5 -82.5q-37.5 -74.5 -20.5 -124.5q17 -53 61 -88l-56 -86
q-29 22 -51 51q-24.4048 32.2143 -41 82zM696 432q15 -58 1.5 -124t-40.5 -120q-30 -60 -80.5 -103.5t-113.5 -64.5q-133 -43 -257 20q-59 30 -101.5 79t-64.5 112l35 7q16 -41 43 -76q32 -42 77 -72l18 -12l73 114q65 -30 122 -13q63 20 98 75q5 8 10 17q35 71 17 126
q-17 52 -60 87l55 85q25 -19 50 -51q25.5814 -32.7442 42 -82l6 -18z" />
    <glyph glyph-name="P" unicode="P" horiz-adv-x="685" 
d="M217 266h130v-47h-130v-220h-151v709.1h101v-270.1h50v-172zM443 707.1q89.9061 0 154.5 -68.5498q64.5 -68.5498 64.5 -159.55t-65.5 -176t-155.5 -85h-55l2 89h-130v81h185q28 0 48 31.5t20 59.5t-20 48t-48 20h-185v-68h-50v228.1h235z" />
    <glyph glyph-name="Q" unicode="Q" horiz-adv-x="771" 
d="M382 169l76 -76q-40 -13 -83 -13h-20l-4 -80q-135 8 -233.5 115t-94.5 241q3 112 44 182q46 79 125 125t177.5 42.5t177.5 -49.5t125 -125t46 -172q0 -83 -38 -158l-119 119q14 63 -14.5 122.5t-88.5 88.5q-39 19 -83 19q-54 0 -100.5 -29t-71.5 -79q-34 -71 -8 -145.5
t97 -108.5q43 -21 90 -19zM495 328l245 -245l-107 -107l-67 68q-29 -18 -70 -33q-19 -7 -95 -11v49q77 4 99 15l30 15l-184 184z" />
    <glyph glyph-name="R" unicode="R" horiz-adv-x="701" 
d="M260 564l-2 -85h-50v229.1l235 1q90 -0.0996094 154.5 -69.5498q64.5 -69.5498 64.5 -160.55q0 -40 -14 -77t-39 -66t-59 -47l-55 84h-237v38h185q28 0 48 20t20 48q0 19 -1.5 36.5t-16.5 34.5q-12 14 -48 14h-185zM509 247l157 -247h-180l-139 219h-130v-219l-151 1
l-2 707.1h101l2 -270.1h50v-106h237l55 -84v-1z" />
    <glyph glyph-name="S" unicode="S" horiz-adv-x="706" 
d="M407 370q68 0 116 -47t48 -114l80 -1q0 -107 -70 -160q-62 -48 -174 -48h-329v148h329q25 0 43 18t18 43t-18 42.5t-43 17.5h-163q-87 0 -149.5 61.5t-62.5 147.5h99q2 -43 46.5 -75.5t89.5 -32.5h140zM277 403q-29 0 -54.5 14.5t-40 39t-14.5 54.5l-135 -1
q0 86 62.5 147q51.9701 50.4564 181.5 50.0996l363 -1v-131.1l-363 -4q-25.2892 -0.278668 -42.9981 -17.3451q-18.0019 -17.6549 -18.0019 -42.6549q0 -17 8 -31t22.5 -22t30.5 -8h163q34 0 71.5 -16.5t69.5 -44.5q71 -65 71 -148h-45q-3 63 -56.5 112.5t-110.5 49.5h-163z
" />
    <glyph glyph-name="T" unicode="T" horiz-adv-x="640" 
d="M330 611v-225l96 5l-2 -391l-192 5v507h-217v191.1h150v-92.0996h165zM206 704h434v-146l-216 -5v-125h-53v224h-165v52z" />
    <glyph glyph-name="U" unicode="U" horiz-adv-x="719" 
d="M525 706.1h149l1 -406.1q0 -58 -19 -106q-15 -40 -48 -80l-72 64l-10 -11q-41 -46 -139 -64l1 41q37 5 68 27q39 27 54.5 70q18.6679 55.4992 18.5 72zM373 75q92 0 160 63l62 -56q-93 -90 -222 -90q-87 0 -161 43t-117 117q-43 75 -43 161v393.1h156l-10 -394.1
q-1.58577 -62.4952 41.5 -114q42.6382 -50.1626 104.5 -59l7 -1l1 -63h21z" />
    <glyph glyph-name="U" unicode="&#xdc;" horiz-adv-x="719" 
d="M525 706.1h149l1 -406.1q0 -58 -19 -106q-15 -40 -48 -80l-72 64l-10 -11q-41 -46 -139 -64l1 41q37 5 68 27q39 27 54.5 70q18.6679 55.4992 18.5 72zM373 75q92 0 160 63l62 -56q-93 -90 -222 -90q-87 0 -161 43t-117 117q-43 75 -43 161v393.1h156l-10 -394.1
q-1.58577 -62.4952 41.5 -114q42.6382 -50.1626 104.5 -59l7 -1l1 -63h21z" />
    <glyph glyph-name="U" unicode="&#xdb;" horiz-adv-x="719" 
d="M525 706.1h149l1 -406.1q0 -58 -19 -106q-15 -40 -48 -80l-72 64l-10 -11q-41 -46 -139 -64l1 41q37 5 68 27q39 27 54.5 70q18.6679 55.4992 18.5 72zM373 75q92 0 160 63l62 -56q-93 -90 -222 -90q-87 0 -161 43t-117 117q-43 75 -43 161v393.1h156l-10 -394.1
q-1.58577 -62.4952 41.5 -114q42.6382 -50.1626 104.5 -59l7 -1l1 -63h21z" />
    <glyph glyph-name="U" unicode="&#xda;" horiz-adv-x="719" 
d="M525 706.1h149l1 -406.1q0 -58 -19 -106q-15 -40 -48 -80l-72 64l-10 -11q-41 -46 -139 -64l1 41q37 5 68 27q39 27 54.5 70q18.6679 55.4992 18.5 72zM373 75q92 0 160 63l62 -56q-93 -90 -222 -90q-87 0 -161 43t-117 117q-43 75 -43 161v393.1h156l-10 -394.1
q-1.58577 -62.4952 41.5 -114q42.6382 -50.1626 104.5 -59l7 -1l1 -63h21z" />
    <glyph glyph-name="U" unicode="&#xd9;" horiz-adv-x="719" 
d="M525 706.1h149l1 -406.1q0 -58 -19 -106q-15 -40 -48 -80l-72 64l-10 -11q-41 -46 -139 -64l1 41q37 5 68 27q39 27 54.5 70q18.6679 55.4992 18.5 72zM373 75q92 0 160 63l62 -56q-93 -90 -222 -90q-87 0 -161 43t-117 117q-43 75 -43 161v393.1h156l-10 -394.1
q-1.58577 -62.4952 41.5 -114q42.6382 -50.1626 104.5 -59l7 -1l1 -63h21z" />
    <glyph glyph-name="V" unicode="V" horiz-adv-x="707" 
d="M516 706.1h191l-296 -647.1l-29 63l115 252l-69 146zM460 364l-119 -247l42 -86l-43 -71l-338 746.1h166l159 -363.1l73 147z" />
    <glyph glyph-name="W" unicode="W" horiz-adv-x="1054" 
d="M344 313l132 188l194 -320l-46 -102l-119 196l-179 -298l-2 5l-310 724.199h166zM698 -17l-47 78l61 125l-216 349l34 55l163 -264l172 380.1h166z" />
    <glyph glyph-name="X" unicode="X" horiz-adv-x="714" 
d="M623 177h-70l-376 529h70l139 -196l140 196h184h1l-232 -326zM528 149h70l91 -149h-185l-154 216l-154 -216h-185l246 346l-233 356.1h115z" />
    <glyph glyph-name="Y" unicode="Y" horiz-adv-x="700" 
d="M181 567l218 -316h28v-250l-144 -1l-4 257l-190 318zM530 709.1h183l-284 -425.1v-3h-28l-219 314h-111l-80 110.1h183l178 -252.1z" />
    <glyph glyph-name="Y" unicode="&#x178;" horiz-adv-x="700" 
d="M181 567l218 -316h28v-250l-144 -1l-4 257l-190 318zM530 709.1h183l-284 -425.1v-3h-28l-219 314h-111l-80 110.1h183l178 -252.1z" />
    <glyph glyph-name="Y" unicode="&#xdd;" horiz-adv-x="700" 
d="M181 567l218 -316h28v-250l-144 -1l-4 257l-190 318zM530 709.1h183l-284 -425.1v-3h-28l-219 314h-111l-80 110.1h183l178 -252.1z" />
    <glyph glyph-name="Z" unicode="Z" horiz-adv-x="760" 
d="M518 364l-172 -212l344 1l-111 -150h-573l387 526l133 1l-14 -19l-112 -149zM88 703h671v-1l-231 -315h-74l120 165h-486v151z" />
    <glyph glyph-name="bracketleft" unicode="[" horiz-adv-x="326" 
d="M300 693h-137v-685h137v-96h-233v877h233v-96z" />
    <glyph glyph-name="bracketright" unicode="]" horiz-adv-x="326" 
d="M26 789h233v-877h-233v96h137v685h-137v96z" />
    <glyph glyph-name="underscore" unicode="_" horiz-adv-x="465" 
d="M450 1h-435v67h435v-67z" />
    <glyph glyph-name="grave" unicode="`" horiz-adv-x="114" 
d="M18 741h78v-78l-56 -71l10 71h-32v78z" />
    <glyph glyph-name="a" unicode="a" horiz-adv-x="642" 
d="M135 0q-21 0 -46.5 29.5q-11.5 13.5 -12.5 78.5l-3 165l44 -2l3 -79l105 -2l-1 -114h133l-4 173l75 -1l2 -103l129 -2l1 -143h-425zM556 466q1 49 -10.4717 60.9609q-20.5283 23.0391 -56.5283 23.0391h-340l-2 -74h251l-1 -77h-255q-60 0 -63 -24
q-7.98637 -70.879 0 -71l66 -1l2 -80h81l-2 102l128 -2v-42l106 -2l3 -96l95 -2z" />
    <glyph glyph-name="a" unicode="&#xe0;" horiz-adv-x="642" 
d="M135 0q-21 0 -46.5 29.5q-11.5 13.5 -12.5 78.5l-3 165l44 -2l3 -79l105 -2l-1 -114h133l-4 173l75 -1l2 -103l129 -2l1 -143h-425zM556 466q1 49 -10.4717 60.9609q-20.5283 23.0391 -56.5283 23.0391h-340l-2 -74h251l-1 -77h-255q-60 0 -63 -24
q-7.98637 -70.879 0 -71l66 -1l2 -80h81l-2 102l128 -2v-42l106 -2l3 -96l95 -2z" />
    <glyph glyph-name="a" unicode="&#xe1;" horiz-adv-x="642" 
d="M135 0q-21 0 -46.5 29.5q-11.5 13.5 -12.5 78.5l-3 165l44 -2l3 -79l105 -2l-1 -114h133l-4 173l75 -1l2 -103l129 -2l1 -143h-425zM556 466q1 49 -10.4717 60.9609q-20.5283 23.0391 -56.5283 23.0391h-340l-2 -74h251l-1 -77h-255q-60 0 -63 -24
q-7.98637 -70.879 0 -71l66 -1l2 -80h81l-2 102l128 -2v-42l106 -2l3 -96l95 -2z" />
    <glyph glyph-name="a" unicode="&#xe2;" horiz-adv-x="642" 
d="M135 0q-21 0 -46.5 29.5q-11.5 13.5 -12.5 78.5l-3 165l44 -2l3 -79l105 -2l-1 -114h133l-4 173l75 -1l2 -103l129 -2l1 -143h-425zM556 466q1 49 -10.4717 60.9609q-20.5283 23.0391 -56.5283 23.0391h-340l-2 -74h251l-1 -77h-255q-60 0 -63 -24
q-7.98637 -70.879 0 -71l66 -1l2 -80h81l-2 102l128 -2v-42l106 -2l3 -96l95 -2z" />
    <glyph glyph-name="a" unicode="&#xe3;" horiz-adv-x="642" 
d="M135 0q-21 0 -46.5 29.5q-11.5 13.5 -12.5 78.5l-3 165l44 -2l3 -79l105 -2l-1 -114h133l-4 173l75 -1l2 -103l129 -2l1 -143h-425zM556 466q1 49 -10.4717 60.9609q-20.5283 23.0391 -56.5283 23.0391h-340l-2 -74h251l-1 -77h-255q-60 0 -63 -24
q-7.98637 -70.879 0 -71l66 -1l2 -80h81l-2 102l128 -2v-42l106 -2l3 -96l95 -2z" />
    <glyph glyph-name="a" unicode="&#xe4;" horiz-adv-x="642" 
d="M135 0q-21 0 -46.5 29.5q-11.5 13.5 -12.5 78.5l-3 165l44 -2l3 -79l105 -2l-1 -114h133l-4 173l75 -1l2 -103l129 -2l1 -143h-425zM556 466q1 49 -10.4717 60.9609q-20.5283 23.0391 -56.5283 23.0391h-340l-2 -74h251l-1 -77h-255q-60 0 -63 -24
q-7.98637 -70.879 0 -71l66 -1l2 -80h81l-2 102l128 -2v-42l106 -2l3 -96l95 -2z" />
    <glyph glyph-name="a" unicode="&#xe5;" horiz-adv-x="642" 
d="M135 0q-21 0 -46.5 29.5q-11.5 13.5 -12.5 78.5l-3 165l44 -2l3 -79l105 -2l-1 -114h133l-4 173l75 -1l2 -103l129 -2l1 -143h-425zM556 466q1 49 -10.4717 60.9609q-20.5283 23.0391 -56.5283 23.0391h-340l-2 -74h251l-1 -77h-255q-60 0 -63 -24
q-7.98637 -70.879 0 -71l66 -1l2 -80h81l-2 102l128 -2v-42l106 -2l3 -96l95 -2z" />
    <glyph glyph-name="b" unicode="b" 
d="M479 0q48 0 84 29.5q47.1143 37.5912 47 78.5l-1 358q0 51 -11 62q-24 24 -57 24h-241v126l-214 4l2 -383h102l3 91l73 -2l2 88h141l3 -476h67zM88 269l131 -1l1 88l48 -1l-1 -279l109 -1l1 -75h-287z" />
    <glyph glyph-name="c" unicode="c" horiz-adv-x="630" 
d="M460.529 173.987l95.2793 -85.0342q-41.8086 -37.9531 -97.0439 -58.9629q-82.7646 -30.9902 -119.789 -31.3857q-101.976 0.395508 -200.015 85.5352q-85.9609 75.8604 -90.4268 182.903h35.2881q1.17773 -31.043 11.4697 -60.9688q10.708 -30.0742 29.1133 -56.1543
q20.9384 -29.4025 44.1113 -48.1318l7.93945 -6.41699l79.3984 58.5605q40.1455 -23.9316 88.2217 -24.0664q68.9238 0.134766 116.453 44.1221zM107.644 278.274v10.4277h-59.1094q4.46582 108.298 90.4268 183.305q86.0391 74.9932 205.115 75.0068
q58.9238 -0.0136719 113.807 -20.457q55.1172 -20.5566 96.1602 -58.1592l-94.3955 -85.8369q-47.6475 44.4395 -115.13 44.1211q-67.5176 0.318359 -115.57 -43.7207q-47.9473 -43.9609 -48.0801 -104.687q0.132812 -67.2744 54.6973 -110.706l-58.2256 -43.3184
q-69.3389 64.75 -69.6953 154.024z" />
    <glyph glyph-name="c" unicode="&#xe7;" horiz-adv-x="630" 
d="M460.529 173.987l95.2793 -85.0342q-41.8086 -37.9531 -97.0439 -58.9629q-82.7646 -30.9902 -119.789 -31.3857q-101.976 0.395508 -200.015 85.5352q-85.9609 75.8604 -90.4268 182.903h35.2881q1.17773 -31.043 11.4697 -60.9688q10.708 -30.0742 29.1133 -56.1543
q20.9384 -29.4025 44.1113 -48.1318l7.93945 -6.41699l79.3984 58.5605q40.1455 -23.9316 88.2217 -24.0664q68.9238 0.134766 116.453 44.1221zM107.644 278.274v10.4277h-59.1094q4.46582 108.298 90.4268 183.305q86.0391 74.9932 205.115 75.0068
q58.9238 -0.0136719 113.807 -20.457q55.1172 -20.5566 96.1602 -58.1592l-94.3955 -85.8369q-47.6475 44.4395 -115.13 44.1211q-67.5176 0.318359 -115.57 -43.7207q-47.9473 -43.9609 -48.0801 -104.687q0.132812 -67.2744 54.6973 -110.706l-58.2256 -43.3184
q-69.3389 64.75 -69.6953 154.024z" />
    <glyph glyph-name="d" unicode="d" 
d="M171.6 0q-35.5996 0 -76.0801 29.5q-52.7769 37.6838 -52.6396 78.5l1.12012 333q0 74 12.3203 85q26.6797 24 63.8398 24h291.92v131l199.68 1l-2.24023 -383h-83.2393l-2.36035 91l-106.76 -2l-2.24023 63h-164.92l-3.36035 -451h-75.04zM609.52 269l-115.72 -1
l-1.12012 88l-77.7598 -1l1.12012 -279l-129.08 -1l-1.12012 -75h321.44z" />
    <glyph glyph-name="e" unicode="e" 
d="M562 466q2 31 -3.5 62q-4.5 24 -63.5 24h-300q-38 0 -67.5 -24q-37.1281 -28.7124 -37.5 -62l-4 -358q-1 -64 12.5 -78.5q26.5 -29.5 72.5 -29.5h388l-1 92h-286v76l63 1v89h-65l-1 218h133v-80l85 -2l1 72h74zM370 170l-2 88h37l-2 106l109 -2v75l50 -1v-266h-192z" />
    <glyph glyph-name="e" unicode="&#xeb;" 
d="M562 466q2 31 -3.5 62q-4.5 24 -63.5 24h-300q-38 0 -67.5 -24q-37.1281 -28.7124 -37.5 -62l-4 -358q-1 -64 12.5 -78.5q26.5 -29.5 72.5 -29.5h388l-1 92h-286v76l63 1v89h-65l-1 218h133v-80l85 -2l1 72h74zM370 170l-2 88h37l-2 106l109 -2v75l50 -1v-266h-192z" />
    <glyph glyph-name="e" unicode="&#xea;" 
d="M562 466q2 31 -3.5 62q-4.5 24 -63.5 24h-300q-38 0 -67.5 -24q-37.1281 -28.7124 -37.5 -62l-4 -358q-1 -64 12.5 -78.5q26.5 -29.5 72.5 -29.5h388l-1 92h-286v76l63 1v89h-65l-1 218h133v-80l85 -2l1 72h74zM370 170l-2 88h37l-2 106l109 -2v75l50 -1v-266h-192z" />
    <glyph glyph-name="e" unicode="&#xe9;" 
d="M562 466q2 31 -3.5 62q-4.5 24 -63.5 24h-300q-38 0 -67.5 -24q-37.1281 -28.7124 -37.5 -62l-4 -358q-1 -64 12.5 -78.5q26.5 -29.5 72.5 -29.5h388l-1 92h-286v76l63 1v89h-65l-1 218h133v-80l85 -2l1 72h74zM370 170l-2 88h37l-2 106l109 -2v75l50 -1v-266h-192z" />
    <glyph glyph-name="e" unicode="&#xe8;" 
d="M562 466q2 31 -3.5 62q-4.5 24 -63.5 24h-300q-38 0 -67.5 -24q-37.1281 -28.7124 -37.5 -62l-4 -358q-1 -64 12.5 -78.5q26.5 -29.5 72.5 -29.5h388l-1 92h-286v76l63 1v89h-65l-1 218h133v-80l85 -2l1 72h74zM370 170l-2 88h37l-2 106l109 -2v75l50 -1v-266h-192z" />
    <glyph glyph-name="f" unicode="f" horiz-adv-x="592" 
d="M193 0v277h116l-1 34l71 1l2 -312h-188zM194 304h90v36l99 1l-2 134l127 1v76h-134l-1 62h187l1 76h-264q-33 0 -53 -12.5t-32 -32t-18.5 -44q-8.5 -31.5 -3.5 -49.5h-99l-2 -76l104 2z" />
    <glyph glyph-name="g" unicode="g" 
d="M203 552q-38 0 -67 -24q-36.1739 -29.1401 -37 -62l-9 -358q-2 -63 12.5 -78.5q26.5 -29.5 72.5 -29.5h183l2 71l-100 5l4 476h-61zM551 -30q0 -41 -47 -78.5q-36 -29.5 -47 -29.5h-342l1 76h282l5 538l-109 -3v79h250z" />
    <glyph glyph-name="h" unicode="h" 
d="M199 690h-183l3 -690l183 -1l1 472h89v30h-89zM441 552q33 0 57 -24q10.8903 -10.8903 11 -62l1 -466h-190l-2 518h-92v34h215z" />
    <glyph glyph-name="i" unicode="i" horiz-adv-x="281" 
d="M46.5303 676.4q0 37.7197 25.4795 65.3193q25.4805 27.6006 63.2451 27.1406q38.6748 0.459961 64.1553 -27.1406q25.4795 -27.5996 25.4795 -65.3193q0 -37.7207 -25.4795 -65.3203q-25.4805 -27.5996 -63.2451 -27.1396q-38.6748 -0.459961 -64.1553 27.1396
q-25.4795 27.5996 -25.4795 65.3203zM64 553h151v-301h-41v205h-110v96zM146 430v-206h69v-223h-151v429h82z" />
    <glyph glyph-name="i" unicode="&#xef;" horiz-adv-x="281" 
d="M46.5303 676.4q0 37.7197 25.4795 65.3193q25.4805 27.6006 63.2451 27.1406q38.6748 0.459961 64.1553 -27.1406q25.4795 -27.5996 25.4795 -65.3193q0 -37.7207 -25.4795 -65.3203q-25.4805 -27.5996 -63.2451 -27.1396q-38.6748 -0.459961 -64.1553 27.1396
q-25.4795 27.5996 -25.4795 65.3203zM64 553h151v-301h-41v205h-110v96zM146 430v-206h69v-223h-151v429h82z" />
    <glyph glyph-name="i" unicode="&#xee;" horiz-adv-x="281" 
d="M46.5303 676.4q0 37.7197 25.4795 65.3193q25.4805 27.6006 63.2451 27.1406q38.6748 0.459961 64.1553 -27.1406q25.4795 -27.5996 25.4795 -65.3193q0 -37.7207 -25.4795 -65.3203q-25.4805 -27.5996 -63.2451 -27.1396q-38.6748 -0.459961 -64.1553 27.1396
q-25.4795 27.5996 -25.4795 65.3203zM64 553h151v-301h-41v205h-110v96zM146 430v-206h69v-223h-151v429h82z" />
    <glyph glyph-name="i" unicode="&#xed;" horiz-adv-x="281" 
d="M46.5303 676.4q0 37.7197 25.4795 65.3193q25.4805 27.6006 63.2451 27.1406q38.6748 0.459961 64.1553 -27.1406q25.4795 -27.5996 25.4795 -65.3193q0 -37.7207 -25.4795 -65.3203q-25.4805 -27.5996 -63.2451 -27.1396q-38.6748 -0.459961 -64.1553 27.1396
q-25.4795 27.5996 -25.4795 65.3203zM64 553h151v-301h-41v205h-110v96zM146 430v-206h69v-223h-151v429h82z" />
    <glyph glyph-name="i" unicode="&#xec;" horiz-adv-x="281" 
d="M46.5303 676.4q0 37.7197 25.4795 65.3193q25.4805 27.6006 63.2451 27.1406q38.6748 0.459961 64.1553 -27.1406q25.4795 -27.5996 25.4795 -65.3193q0 -37.7207 -25.4795 -65.3203q-25.4805 -27.5996 -63.2451 -27.1396q-38.6748 -0.459961 -64.1553 27.1396
q-25.4795 27.5996 -25.4795 65.3203zM64 553h151v-301h-41v205h-110v96zM146 430v-206h69v-223h-151v429h82z" />
    <glyph glyph-name="j" unicode="j" horiz-adv-x="609" 
d="M380.4 671.735q0 39.585 29.7598 67.4248t72.54 27.8398q42.7803 0 72.54 -27.8398t29.7598 -67.4248q0 -39.585 -29.7598 -68.2949q-29.7598 -27.8408 -72.54 -27.8408q-42.7803 0 -72.54 27.8408q-29.7598 28.71 -29.7598 68.2949zM457 415v-234l105 -1v-9
q0 -118 -21 -154.5q-41 -70.5 -110 -112.5q-74 -45 -164 -42.5t-207 112.5l1 1l140 16l71 -31q51 0 84 33q36 36 36 147v275h65zM395 552l170 1v-331h-67v236h-103v94z" />
    <glyph glyph-name="k" unicode="k" horiz-adv-x="661" 
d="M415.96 164.98l-182.095 173.555l-160.391 -1.68555v277.806l145.471 -0.758789l-3.73047 -202.906l227.53 206.192h198.622l-307.725 -298.867l159.715 -153.335h-77.3975zM414.095 129.595l104.44 -0.841797l143.604 -129.745l-249.909 1.68457l-203.543 192.933
v-196.303h-140.808v307.513l164.12 -1.68457z" />
    <glyph glyph-name="l" unicode="l" horiz-adv-x="281" 
d="M64 767h151v-419h-41v205h-110v214zM146 526v-206h69v-319h-151v525h82z" />
    <glyph glyph-name="m" unicode="m" horiz-adv-x="954" 
d="M426 0h198l-2 130h-96l-4 96h-99zM297 0h-213l-1 132h126l1 94h85zM884 552q33 0 56.5 -24q10.5 -11 10.5 -62l3 -206h-150l1 -90l-65 -1l-4 311l-124 -2l3 -310h-55l-3 90l-133 -2l-2 220l-133 -2l2 -216h-119l-2 -87l-84 -1l-3 382h801zM742 0h212v226l-111 -1l2 -93
l-103 -2v-130z" />
    <glyph glyph-name="n" unicode="n" 
d="M556 552q33 0 56.5 -24q10.3903 -10.8851 10.5 -62l1 -466h-212l2 476h-92v76h234zM84 0h213l-7 552h-209z" />
    <glyph glyph-name="n" unicode="&#xf1;" 
d="M556 552q33 0 56.5 -24q10.3903 -10.8851 10.5 -62l1 -466h-212l2 476h-92v76h234zM84 0h213l-7 552h-209z" />
    <glyph glyph-name="o" unicode="o" horiz-adv-x="739" 
d="M156.44 210.28l-3.28027 9.83984l-50.8398 -12.2998q-25.4199 98.3994 18.8594 189.42q23.7803 50.0195 66.0107 86.5098q42.2295 36.4902 91.4297 53.2998q49.2002 16.8105 104.55 14.3506t105.37 -27.0605q49.2002 -23.7803 84.46 -63.1396
q35.2598 -39.3604 53.2998 -88.5605l-33.6201 -7.37988q-13.1201 35.2598 -36.0801 64.7803q-27.0596 34.4404 -63.96 57.4004l-9.01953 5.73926l-50.0205 -79.54q-31.1592 14.7607 -64.7793 14.7607q-27.8799 0 -54.5303 -9.84082q-26.6504 -9.83984 -47.9697 -29.5195
q-21.3203 -19.6797 -34.4404 -45.9199q-27.0596 -56.5801 -6.55957 -115.62q15.5801 -44.2803 52.4795 -72.1602l-36.8994 -59.04q-27.0605 18.8604 -48.3809 45.9199q-23.7793 30.3398 -36.0791 68.0605zM633.68 351.32q27.8799 -100.86 -17.2197 -194.34
q-24.5996 -50.0205 -65.1904 -86.1006q-40.5898 -36.0801 -92.25 -54.1201q-44.2793 -14.7598 -91.0195 -14.7598q-62.3203 0 -119.72 27.0596q-49.2002 24.6006 -85.2803 65.1904t-54.1201 92.25l29.5205 7.37988q13.1191 -36.0801 36.8994 -65.5996
q26.2402 -34.4404 63.1406 -57.4004l9.83984 -5.74023l48.3799 78.7207q0.820312 -0.820312 2.45996 -1.64062q2.45996 -0.819336 3.28027 -1.63965q56.5801 -27.0605 116.029 -6.56055q59.4502 20.5 86.9199 77.0801q27.4707 56.5801 6.15039 115.62
q-16.4004 47.5605 -58.2197 75.4404l36.8994 59.8594q27.8799 -18.8594 48.3799 -45.0996q23.7803 -31.1602 36.0801 -68.8799l3.28027 -9.83984z" />
    <glyph glyph-name="o" unicode="&#xf8;" horiz-adv-x="739" 
d="M156.44 210.28l-3.28027 9.83984l-50.8398 -12.2998q-25.4199 98.3994 18.8594 189.42q23.7803 50.0195 66.0107 86.5098q42.2295 36.4902 91.4297 53.2998q49.2002 16.8105 104.55 14.3506t105.37 -27.0605q49.2002 -23.7803 84.46 -63.1396
q35.2598 -39.3604 53.2998 -88.5605l-33.6201 -7.37988q-13.1201 35.2598 -36.0801 64.7803q-27.0596 34.4404 -63.96 57.4004l-9.01953 5.73926l-50.0205 -79.54q-31.1592 14.7607 -64.7793 14.7607q-27.8799 0 -54.5303 -9.84082q-26.6504 -9.83984 -47.9697 -29.5195
q-21.3203 -19.6797 -34.4404 -45.9199q-27.0596 -56.5801 -6.55957 -115.62q15.5801 -44.2803 52.4795 -72.1602l-36.8994 -59.04q-27.0605 18.8604 -48.3809 45.9199q-23.7793 30.3398 -36.0791 68.0605zM633.68 351.32q27.8799 -100.86 -17.2197 -194.34
q-24.5996 -50.0205 -65.1904 -86.1006q-40.5898 -36.0801 -92.25 -54.1201q-44.2793 -14.7598 -91.0195 -14.7598q-62.3203 0 -119.72 27.0596q-49.2002 24.6006 -85.2803 65.1904t-54.1201 92.25l29.5205 7.37988q13.1191 -36.0801 36.8994 -65.5996
q26.2402 -34.4404 63.1406 -57.4004l9.83984 -5.74023l48.3799 78.7207q0.820312 -0.820312 2.45996 -1.64062q2.45996 -0.819336 3.28027 -1.63965q56.5801 -27.0605 116.029 -6.56055q59.4502 20.5 86.9199 77.0801q27.4707 56.5801 6.15039 115.62
q-16.4004 47.5605 -58.2197 75.4404l36.8994 59.8594q27.8799 -18.8594 48.3799 -45.0996q23.7803 -31.1602 36.0801 -68.8799l3.28027 -9.83984z" />
    <glyph glyph-name="o" unicode="&#xf6;" horiz-adv-x="739" 
d="M156.44 210.28l-3.28027 9.83984l-50.8398 -12.2998q-25.4199 98.3994 18.8594 189.42q23.7803 50.0195 66.0107 86.5098q42.2295 36.4902 91.4297 53.2998q49.2002 16.8105 104.55 14.3506t105.37 -27.0605q49.2002 -23.7803 84.46 -63.1396
q35.2598 -39.3604 53.2998 -88.5605l-33.6201 -7.37988q-13.1201 35.2598 -36.0801 64.7803q-27.0596 34.4404 -63.96 57.4004l-9.01953 5.73926l-50.0205 -79.54q-31.1592 14.7607 -64.7793 14.7607q-27.8799 0 -54.5303 -9.84082q-26.6504 -9.83984 -47.9697 -29.5195
q-21.3203 -19.6797 -34.4404 -45.9199q-27.0596 -56.5801 -6.55957 -115.62q15.5801 -44.2803 52.4795 -72.1602l-36.8994 -59.04q-27.0605 18.8604 -48.3809 45.9199q-23.7793 30.3398 -36.0791 68.0605zM633.68 351.32q27.8799 -100.86 -17.2197 -194.34
q-24.5996 -50.0205 -65.1904 -86.1006q-40.5898 -36.0801 -92.25 -54.1201q-44.2793 -14.7598 -91.0195 -14.7598q-62.3203 0 -119.72 27.0596q-49.2002 24.6006 -85.2803 65.1904t-54.1201 92.25l29.5205 7.37988q13.1191 -36.0801 36.8994 -65.5996
q26.2402 -34.4404 63.1406 -57.4004l9.83984 -5.74023l48.3799 78.7207q0.820312 -0.820312 2.45996 -1.64062q2.45996 -0.819336 3.28027 -1.63965q56.5801 -27.0605 116.029 -6.56055q59.4502 20.5 86.9199 77.0801q27.4707 56.5801 6.15039 115.62
q-16.4004 47.5605 -58.2197 75.4404l36.8994 59.8594q27.8799 -18.8594 48.3799 -45.0996q23.7803 -31.1602 36.0801 -68.8799l3.28027 -9.83984z" />
    <glyph glyph-name="o" unicode="&#xf5;" horiz-adv-x="739" 
d="M156.44 210.28l-3.28027 9.83984l-50.8398 -12.2998q-25.4199 98.3994 18.8594 189.42q23.7803 50.0195 66.0107 86.5098q42.2295 36.4902 91.4297 53.2998q49.2002 16.8105 104.55 14.3506t105.37 -27.0605q49.2002 -23.7803 84.46 -63.1396
q35.2598 -39.3604 53.2998 -88.5605l-33.6201 -7.37988q-13.1201 35.2598 -36.0801 64.7803q-27.0596 34.4404 -63.96 57.4004l-9.01953 5.73926l-50.0205 -79.54q-31.1592 14.7607 -64.7793 14.7607q-27.8799 0 -54.5303 -9.84082q-26.6504 -9.83984 -47.9697 -29.5195
q-21.3203 -19.6797 -34.4404 -45.9199q-27.0596 -56.5801 -6.55957 -115.62q15.5801 -44.2803 52.4795 -72.1602l-36.8994 -59.04q-27.0605 18.8604 -48.3809 45.9199q-23.7793 30.3398 -36.0791 68.0605zM633.68 351.32q27.8799 -100.86 -17.2197 -194.34
q-24.5996 -50.0205 -65.1904 -86.1006q-40.5898 -36.0801 -92.25 -54.1201q-44.2793 -14.7598 -91.0195 -14.7598q-62.3203 0 -119.72 27.0596q-49.2002 24.6006 -85.2803 65.1904t-54.1201 92.25l29.5205 7.37988q13.1191 -36.0801 36.8994 -65.5996
q26.2402 -34.4404 63.1406 -57.4004l9.83984 -5.74023l48.3799 78.7207q0.820312 -0.820312 2.45996 -1.64062q2.45996 -0.819336 3.28027 -1.63965q56.5801 -27.0605 116.029 -6.56055q59.4502 20.5 86.9199 77.0801q27.4707 56.5801 6.15039 115.62
q-16.4004 47.5605 -58.2197 75.4404l36.8994 59.8594q27.8799 -18.8594 48.3799 -45.0996q23.7803 -31.1602 36.0801 -68.8799l3.28027 -9.83984z" />
    <glyph glyph-name="o" unicode="&#xf4;" horiz-adv-x="739" 
d="M156.44 210.28l-3.28027 9.83984l-50.8398 -12.2998q-25.4199 98.3994 18.8594 189.42q23.7803 50.0195 66.0107 86.5098q42.2295 36.4902 91.4297 53.2998q49.2002 16.8105 104.55 14.3506t105.37 -27.0605q49.2002 -23.7803 84.46 -63.1396
q35.2598 -39.3604 53.2998 -88.5605l-33.6201 -7.37988q-13.1201 35.2598 -36.0801 64.7803q-27.0596 34.4404 -63.96 57.4004l-9.01953 5.73926l-50.0205 -79.54q-31.1592 14.7607 -64.7793 14.7607q-27.8799 0 -54.5303 -9.84082q-26.6504 -9.83984 -47.9697 -29.5195
q-21.3203 -19.6797 -34.4404 -45.9199q-27.0596 -56.5801 -6.55957 -115.62q15.5801 -44.2803 52.4795 -72.1602l-36.8994 -59.04q-27.0605 18.8604 -48.3809 45.9199q-23.7793 30.3398 -36.0791 68.0605zM633.68 351.32q27.8799 -100.86 -17.2197 -194.34
q-24.5996 -50.0205 -65.1904 -86.1006q-40.5898 -36.0801 -92.25 -54.1201q-44.2793 -14.7598 -91.0195 -14.7598q-62.3203 0 -119.72 27.0596q-49.2002 24.6006 -85.2803 65.1904t-54.1201 92.25l29.5205 7.37988q13.1191 -36.0801 36.8994 -65.5996
q26.2402 -34.4404 63.1406 -57.4004l9.83984 -5.74023l48.3799 78.7207q0.820312 -0.820312 2.45996 -1.64062q2.45996 -0.819336 3.28027 -1.63965q56.5801 -27.0605 116.029 -6.56055q59.4502 20.5 86.9199 77.0801q27.4707 56.5801 6.15039 115.62
q-16.4004 47.5605 -58.2197 75.4404l36.8994 59.8594q27.8799 -18.8594 48.3799 -45.0996q23.7803 -31.1602 36.0801 -68.8799l3.28027 -9.83984z" />
    <glyph glyph-name="o" unicode="&#xf3;" horiz-adv-x="739" 
d="M156.44 210.28l-3.28027 9.83984l-50.8398 -12.2998q-25.4199 98.3994 18.8594 189.42q23.7803 50.0195 66.0107 86.5098q42.2295 36.4902 91.4297 53.2998q49.2002 16.8105 104.55 14.3506t105.37 -27.0605q49.2002 -23.7803 84.46 -63.1396
q35.2598 -39.3604 53.2998 -88.5605l-33.6201 -7.37988q-13.1201 35.2598 -36.0801 64.7803q-27.0596 34.4404 -63.96 57.4004l-9.01953 5.73926l-50.0205 -79.54q-31.1592 14.7607 -64.7793 14.7607q-27.8799 0 -54.5303 -9.84082q-26.6504 -9.83984 -47.9697 -29.5195
q-21.3203 -19.6797 -34.4404 -45.9199q-27.0596 -56.5801 -6.55957 -115.62q15.5801 -44.2803 52.4795 -72.1602l-36.8994 -59.04q-27.0605 18.8604 -48.3809 45.9199q-23.7793 30.3398 -36.0791 68.0605zM633.68 351.32q27.8799 -100.86 -17.2197 -194.34
q-24.5996 -50.0205 -65.1904 -86.1006q-40.5898 -36.0801 -92.25 -54.1201q-44.2793 -14.7598 -91.0195 -14.7598q-62.3203 0 -119.72 27.0596q-49.2002 24.6006 -85.2803 65.1904t-54.1201 92.25l29.5205 7.37988q13.1191 -36.0801 36.8994 -65.5996
q26.2402 -34.4404 63.1406 -57.4004l9.83984 -5.74023l48.3799 78.7207q0.820312 -0.820312 2.45996 -1.64062q2.45996 -0.819336 3.28027 -1.63965q56.5801 -27.0605 116.029 -6.56055q59.4502 20.5 86.9199 77.0801q27.4707 56.5801 6.15039 115.62
q-16.4004 47.5605 -58.2197 75.4404l36.8994 59.8594q27.8799 -18.8594 48.3799 -45.0996q23.7803 -31.1602 36.0801 -68.8799l3.28027 -9.83984z" />
    <glyph glyph-name="o" unicode="&#xf2;" horiz-adv-x="739" 
d="M156.44 210.28l-3.28027 9.83984l-50.8398 -12.2998q-25.4199 98.3994 18.8594 189.42q23.7803 50.0195 66.0107 86.5098q42.2295 36.4902 91.4297 53.2998q49.2002 16.8105 104.55 14.3506t105.37 -27.0605q49.2002 -23.7803 84.46 -63.1396
q35.2598 -39.3604 53.2998 -88.5605l-33.6201 -7.37988q-13.1201 35.2598 -36.0801 64.7803q-27.0596 34.4404 -63.96 57.4004l-9.01953 5.73926l-50.0205 -79.54q-31.1592 14.7607 -64.7793 14.7607q-27.8799 0 -54.5303 -9.84082q-26.6504 -9.83984 -47.9697 -29.5195
q-21.3203 -19.6797 -34.4404 -45.9199q-27.0596 -56.5801 -6.55957 -115.62q15.5801 -44.2803 52.4795 -72.1602l-36.8994 -59.04q-27.0605 18.8604 -48.3809 45.9199q-23.7793 30.3398 -36.0791 68.0605zM633.68 351.32q27.8799 -100.86 -17.2197 -194.34
q-24.5996 -50.0205 -65.1904 -86.1006q-40.5898 -36.0801 -92.25 -54.1201q-44.2793 -14.7598 -91.0195 -14.7598q-62.3203 0 -119.72 27.0596q-49.2002 24.6006 -85.2803 65.1904t-54.1201 92.25l29.5205 7.37988q13.1191 -36.0801 36.8994 -65.5996
q26.2402 -34.4404 63.1406 -57.4004l9.83984 -5.74023l48.3799 78.7207q0.820312 -0.820312 2.45996 -1.64062q2.45996 -0.819336 3.28027 -1.63965q56.5801 -27.0605 116.029 -6.56055q59.4502 20.5 86.9199 77.0801q27.4707 56.5801 6.15039 115.62
q-16.4004 47.5605 -58.2197 75.4404l36.8994 59.8594q27.8799 -18.8594 48.3799 -45.0996q23.7803 -31.1602 36.0801 -68.8799l3.28027 -9.83984z" />
    <glyph glyph-name="p" unicode="p" horiz-adv-x="647" 
d="M218 299v-139h128v-46h-128v-252h-151v709h80v-272h71zM403 552q90 0 154.5 -64t64.5 -154.5t-64.5 -155t-154.5 -64.5h-30v73h-128v78h158q14 0 26.5 5.5t21.5 14.5t14.5 21.5t5.5 26.5q0 29 -20 49t-48 20h-185v-76h-44v226h229z" />
    <glyph glyph-name="q" unicode="q" horiz-adv-x="647" 
d="M450.65 237v-139h-132.721v-46h132.721v-190h168.364v728h-89.1992v-353h-79.165zM276.375 552q-100.375 0 -172.268 -64q-72.1074 -64 -71.917 -154.5q-0.19043 -152.5 71.917 -217q71.8926 -64.5 172.268 -64.5h11.4502v73h132.72v78h-144.17q-15.375 0 -29.5479 5.5
q-13.8271 5.5 -23.9717 14.5q-9.85547 9 -16.168 21.5q-6.6875 14.5 -6.13281 88.5q0.445312 29 22.3008 49q22.1445 20 53.5195 20h174.275v-138h49.0596v288h-223.335z" />
    <glyph glyph-name="r" unicode="r" horiz-adv-x="491" 
d="M83 466q0 33 37.5 62q29.5 24 67.5 24h303v-76l-117 -2q-67 -24 -78 -68l-3 -259h-75l-1 110h-136zM83 0v220l97 1l2 -102l115 -1l1 -118h-215z" />
    <glyph glyph-name="s" unicode="s" horiz-adv-x="706" 
d="M391.925 286.75q52.7002 0 89.9004 -36.4248q37.2002 -36.4248 37.2002 -88.3506l62 -0.774414q0 -82.9248 -54.25 -124q-48.0508 -37.2002 -134.851 -37.2002h-254.975v114.7h254.975q19.375 0 33.3252 13.9502q13.9502 13.9492 13.9502 33.3242t-13.9502 32.9375
t-33.3252 13.5625h-126.325q-67.4248 0 -115.862 47.6631q-48.4375 47.6621 -48.4375 114.312h76.7256q1.5498 -33.3252 36.0371 -58.5127t69.3623 -25.1875h108.5zM291.175 312.325q-22.6488 0 -42.2373 11.2373q-19.9375 11.4375 -31 30.2246
q-10.9375 19.2129 -11.2373 42.2383l-104.625 -0.775391q-0.0751953 70.75 48.4375 117.925q40.7761 39.1021 140.662 38.8271l281.325 -0.774414v-101.603l-281.325 -3.09961q-19.1748 -0.525391 -33.3232 -13.4424q-13.8516 -14.083 -13.9512 -37.0576
q0.0996094 -13.0254 6.19922 -24.0254q5.90039 -11 17.4375 -17.0498q11.9445 -6.2002 23.6377 -6.2002h126.325q26.22 0.222204 55.4121 -12.7871q29.0879 -12.9629 53.8633 -34.4883q55.2246 -50.4746 55.0244 -114.699h-34.875q-1.9248 49.2246 -43.7871 87.1875
q-41.4894 38.3623 -85.6377 38.3623h-126.325z" />
    <glyph glyph-name="t" unicode="t" horiz-adv-x="471" 
d="M308 76h104l-5 -76h-190q-44 0 -72.5 29.5q-13.0337 13.0337 -12.5 78.5l3 368h-108l5 76h107l1 50l56 -1l-4 -183l126 -5zM318 437l-98 4l4 188l-81 3l1 61l179 -3l-1 -138h130v-76l-132 3z" />
    <glyph glyph-name="u" unicode="u" horiz-adv-x="719" 
d="M507.52 552.568h131.865l0.884766 -312.788q-0.269531 -43.7803 -16.8145 -83.21q-13.4551 -31.5703 -42.4805 -62.8008l-63.7197 50.2402l-8.84961 -8.63477q-37.4053 -36.375 -123.016 -50.2402l0.885742 32.1855q32.7246 3.67969 60.1797 21.1943
q37.5449 23.4854 48.2324 54.9502q16.4832 47.0221 16.3721 56.5205zM373 63.1553q81.1897 0 141.6 49.4551l54.8701 -43.96q-82.4697 -70.6504 -196.47 -70.6504q-77 0 -142.485 33.7549q-65.5146 34.2451 -103.545 91.8447q-38.0547 58.5311 -38.0547 126.386v302.583
h131.06l-1.84961 -303.368q-0.125 -51.2002 36.7275 -89.4902q37.8499 -39.4003 92.4824 -46.3154l6.19531 -0.78418l0.884766 -49.4551h18.585z" />
    <glyph glyph-name="u" unicode="&#xfc;" horiz-adv-x="719" 
d="M507.52 552.568h131.865l0.884766 -312.788q-0.269531 -43.7803 -16.8145 -83.21q-13.4551 -31.5703 -42.4805 -62.8008l-63.7197 50.2402l-8.84961 -8.63477q-37.4053 -36.375 -123.016 -50.2402l0.885742 32.1855q32.7246 3.67969 60.1797 21.1943
q37.5449 23.4854 48.2324 54.9502q16.4832 47.0221 16.3721 56.5205zM373 63.1553q81.1897 0 141.6 49.4551l54.8701 -43.96q-82.4697 -70.6504 -196.47 -70.6504q-77 0 -142.485 33.7549q-65.5146 34.2451 -103.545 91.8447q-38.0547 58.5311 -38.0547 126.386v302.583
h131.06l-1.84961 -303.368q-0.125 -51.2002 36.7275 -89.4902q37.8499 -39.4003 92.4824 -46.3154l6.19531 -0.78418l0.884766 -49.4551h18.585z" />
    <glyph glyph-name="u" unicode="&#xfb;" horiz-adv-x="719" 
d="M507.52 552.568h131.865l0.884766 -312.788q-0.269531 -43.7803 -16.8145 -83.21q-13.4551 -31.5703 -42.4805 -62.8008l-63.7197 50.2402l-8.84961 -8.63477q-37.4053 -36.375 -123.016 -50.2402l0.885742 32.1855q32.7246 3.67969 60.1797 21.1943
q37.5449 23.4854 48.2324 54.9502q16.4832 47.0221 16.3721 56.5205zM373 63.1553q81.1897 0 141.6 49.4551l54.8701 -43.96q-82.4697 -70.6504 -196.47 -70.6504q-77 0 -142.485 33.7549q-65.5146 34.2451 -103.545 91.8447q-38.0547 58.5311 -38.0547 126.386v302.583
h131.06l-1.84961 -303.368q-0.125 -51.2002 36.7275 -89.4902q37.8499 -39.4003 92.4824 -46.3154l6.19531 -0.78418l0.884766 -49.4551h18.585z" />
    <glyph glyph-name="u" unicode="&#xfa;" horiz-adv-x="719" 
d="M507.52 552.568h131.865l0.884766 -312.788q-0.269531 -43.7803 -16.8145 -83.21q-13.4551 -31.5703 -42.4805 -62.8008l-63.7197 50.2402l-8.84961 -8.63477q-37.4053 -36.375 -123.016 -50.2402l0.885742 32.1855q32.7246 3.67969 60.1797 21.1943
q37.5449 23.4854 48.2324 54.9502q16.4832 47.0221 16.3721 56.5205zM373 63.1553q81.1897 0 141.6 49.4551l54.8701 -43.96q-82.4697 -70.6504 -196.47 -70.6504q-77 0 -142.485 33.7549q-65.5146 34.2451 -103.545 91.8447q-38.0547 58.5311 -38.0547 126.386v302.583
h131.06l-1.84961 -303.368q-0.125 -51.2002 36.7275 -89.4902q37.8499 -39.4003 92.4824 -46.3154l6.19531 -0.78418l0.884766 -49.4551h18.585z" />
    <glyph glyph-name="u" unicode="&#xf9;" horiz-adv-x="719" 
d="M507.52 552.568h131.865l0.884766 -312.788q-0.269531 -43.7803 -16.8145 -83.21q-13.4551 -31.5703 -42.4805 -62.8008l-63.7197 50.2402l-8.84961 -8.63477q-37.4053 -36.375 -123.016 -50.2402l0.885742 32.1855q32.7246 3.67969 60.1797 21.1943
q37.5449 23.4854 48.2324 54.9502q16.4832 47.0221 16.3721 56.5205zM373 63.1553q81.1897 0 141.6 49.4551l54.8701 -43.96q-82.4697 -70.6504 -196.47 -70.6504q-77 0 -142.485 33.7549q-65.5146 34.2451 -103.545 91.8447q-38.0547 58.5311 -38.0547 126.386v302.583
h131.06l-1.84961 -303.368q-0.125 -51.2002 36.7275 -89.4902q37.8499 -39.4003 92.4824 -46.3154l6.19531 -0.78418l0.884766 -49.4551h18.585z" />
    <glyph glyph-name="v" unicode="v" horiz-adv-x="707" 
d="M472 550.113h143.25l-222 -478.854l-21.75 46.6201l86.25 186.48l-51.75 108.04zM430 296.96l-89.25 -182.78l31.5 -63.6396l-32.25 -52.54l-253.5 552.113h124.5l119.25 -268.693l54.75 108.78z" />
    <glyph glyph-name="w" unicode="w" horiz-adv-x="1054" 
d="M461.74 252.45l88.0977 143.819l129.475 -244.8l-30.7002 -78.0293l-79.4209 149.939l-119.464 -227.97l-1.33594 3.8252l-206.894 554.012h110.789zM698 0l-31.3672 59.6699l40.7109 95.625l-144.159 266.985l22.6924 42.0752l108.786 -201.961l114.793 290.776h110.788
z" />
    <glyph glyph-name="x" unicode="x" horiz-adv-x="714" 
d="M555.14 138.06h-51.7998l-278.24 412.62h51.8008l102.859 -152.88l103.601 152.88h136.159h0.740234l-171.68 -254.279zM484.84 116.22h51.7998l67.3408 -116.22h-136.9l-113.96 168.48l-113.96 -168.48h-136.9l182.04 269.88l-172.42 281.758h85.1006z" />
    <glyph glyph-name="y" unicode="y" 
d="M327 76l139 476h160l-158 -582q-13 -49 -47 -78.5q-36 -29.5 -84 -29.5h-242l17 76h172l23 62h-75q-44 0 -72.5 29.5q-1.98825 1.98825 -12.5 78.5l-61 444h170z" />
    <glyph glyph-name="y" unicode="&#xff;" 
d="M327 76l139 476h160l-158 -582q-13 -49 -47 -78.5q-36 -29.5 -84 -29.5h-242l17 76h172l23 62h-75q-44 0 -72.5 29.5q-1.98825 1.98825 -12.5 78.5l-61 444h170z" />
    <glyph glyph-name="y" unicode="&#xfd;" 
d="M327 76l139 476h160l-158 -582q-13 -49 -47 -78.5q-36 -29.5 -84 -29.5h-242l17 76h172l23 62h-75q-44 0 -72.5 29.5q-1.98825 1.98825 -12.5 78.5l-61 444h170z" />
    <glyph glyph-name="z" unicode="z" horiz-adv-x="706" 
d="M431.48 288.12l-116.2 -160.44h297.97l-91.2998 -126h-454.01l292.989 403.2h83l-84.6602 -115.92h72.2109v-0.839844zM78.7305 554.4h545.31l-175.96 -242.761h-43.9902l84.6602 116.761h-410.02v126z" />
    <glyph glyph-name="braceleft" unicode="{" horiz-adv-x="1194" 
d="M1152 684h-61v-697h61v-82h-143v318h-249v-105h-258q-11 -22 -32.5 -35.5t-47.5 -13.5q-36 0 -62.5 26t-26.5 62.5t26.5 63t62.5 26.5q25 0 46 -13t32 -34h178v128h-479q-11 -21 -32 -33.5t-46 -12.5q-37 0 -63 26t-26 63t26 63t63 26q26 0 47.5 -13.5t32.5 -36.5h559
v-104h105v168h-424q-11 -21 -32 -33.5t-46 -12.5q-37 0 -63 26t-26 63q0 18 7 34.5t19 28.5t28.5 19t34.5 7q17 0 33 -6t27.5 -17.5t19.5 -25.5h504v-251h62v460h143v-82z" />
    <glyph glyph-name="verticalbar" unicode="|" horiz-adv-x="285" 
d="M218 -34h-151v758h151v-758z" />
    <glyph glyph-name="braceright" unicode="}" horiz-adv-x="1194" 
d="M1072 460q37 0 63 -26t26 -63t-26 -63t-63 -26q-24 0 -45 12.5t-33 33.5h-478v-128h177q12 21 32.5 34t45.5 13q18 0 34.5 -7.5t28.5 -19t19 -28t7 -34.5q0 -37 -26 -63.5t-63 -26.5q-26 0 -47.5 14t-32.5 36h-257v105h-249v-318h-144v82h62v697h-62v82h144v-460h61v251
h505q3 7 8 13.5t11 12t13 10t14.5 7.5t16 4.5t16.5 1.5q37 0 63 -26t26 -63t-26 -63t-63 -26q-24 0 -45 12.5t-33 33.5h-423v-168h105v104h559q7 15 19 26t27.5 17.5t32.5 6.5z" />
    <glyph glyph-name="asciitilde" unicode="~" horiz-adv-x="321" 
d="M297 279l4 -33l-118 -26l-43 -9l-2 -1v41h-115l-4 33l119 26l42 9l3 1v-41h114z" />
    <glyph glyph-name="nonbreakingspace" unicode="&#xa0;" horiz-adv-x="327" 
 />
    <glyph glyph-name="cent" unicode="&#xa2;" horiz-adv-x="515" 
d="M462 482h-112v-262h112v-124h-112v-94h-95v94h-22q-65 0 -124.5 62t-59.5 140v113q0 52 31.5 98.5t74 71.5t80.5 25h20v94h95v-94h112v-124zM234 220h21v262h-20q-16 -1 -39.5 -24t-23.5 -47v-113q0 -28 23.5 -52.5t38.5 -25.5z" />
    <glyph glyph-name="sterling" unicode="&#xa3;" horiz-adv-x="567" 
d="M336 560q-16 -2 -39.5 -25t-23.5 -47v-136h113v-124h-113v-107h249v-123h-474v123h102v107h-102v124h102v136q0 40 18.5 77.5t47 62.5t60.5 40t60 15h186v-123h-186z" />
    <glyph glyph-name="yen" unicode="&#xa5;" horiz-adv-x="595" 
d="M359 338v-39h130v-83h-130v-45h130v-51h-130v-121h-123v121h-136v51h136v45h-136v83h136v39l-203 347h127l138 -235l137 235h128z" />
    <glyph glyph-name="copyright" unicode="&#xa9;" horiz-adv-x="784" 
d="M321 315q0 -15 10.5 -25.5t26.5 -10.5h152v-96h-152q-55 0 -94 38.5t-39 93.5v68q0 53 37.5 90.5t91.5 37.5h152v-96h-152q-14 0 -23.5 -9.5t-9.5 -22.5v-68zM391.5 692q93.5 0 173 -46.5t125.5 -125.5t46 -172.5t-46 -173t-125.5 -126t-173 -46.5t-173 46.5t-125.5 126
t-46 173t46 172.5t125.5 125.5t173 46.5zM392 98q103 0 176 73t73 176t-73 176t-176 73t-176 -73t-73 -176t73 -176t176 -73z" />
    <glyph glyph-name="softhyphen" unicode="&#xad;" horiz-adv-x="0" 
 />
    <glyph glyph-name="registered" unicode="&#xae;" horiz-adv-x="784" 
d="M535 428q0 -53 -42 -84l44 -119h-102l-73 195h69q8 0 8 8v47q0 5 -3 8t-8 3h-86v-261h-96v357h182q45 0 76 -31.5t31 -75.5v-47zM391.5 748q93.5 0 173 -46t125.5 -125.5t46 -173t-46 -173t-125.5 -125.5t-173 -46t-173 46t-125.5 125.5t-46 173t46 173t125.5 125.5
t173 46zM392 155q103 0 176 73t73 176t-73 176t-176 73t-176 -73t-73 -176t73 -176t176 -73z" />
    <glyph glyph-name="Euro" unicode="&#x20ac;" horiz-adv-x="536" 
d="M490 563h-174q-15 -14 -34 -51.5t-31 -77.5h100v-75h-110v-32q0 -8 1 -18h108v-75h-93q12 -36 28 -66t28 -42h177v-123h-188q-38 0 -74 36t-59.5 87t-37.5 108h-90v75h78q-1 10 -1 18v32h-77v75h85q8 43 25 86t39.5 81t52.5 61.5t61 23.5h186v-123z" />
  </font>
</defs>
</svg>
